<?xml version="1.0" standalone="no"?>
<!DOCTYPE svg PUBLIC "-//W3C//DTD SVG 20010904//EN"
 "http://www.w3.org/TR/2001/REC-SVG-20010904/DTD/svg10.dtd">
<svg version="1.0" xmlns="http://www.w3.org/2000/svg"
 width="123.000000pt" height="102.000000pt" viewBox="0 0 123.000000 102.000000"
 preserveAspectRatio="xMidYMid meet">

<g transform="translate(0.000000,102.000000) scale(0.100000,-0.100000)"
fill="#000000" stroke="none">
<path d="M503 1005 c-34 -7 -71 -19 -83 -25 -12 -6 -38 -9 -63 -5 -34 5 -58 0
-122 -25 -93 -38 -111 -51 -136 -105 -11 -22 -36 -66 -55 -98 -29 -45 -37 -70
-41 -121 -7 -78 2 -120 22 -112 11 4 15 -3 15 -30 0 -38 24 -104 38 -104 4 0
16 -16 25 -35 9 -19 23 -35 32 -35 8 0 21 -13 29 -28 12 -24 24 -30 76 -40 76
-14 86 -21 94 -74 8 -51 56 -99 141 -142 54 -28 60 -29 104 -17 25 6 82 28
126 48 45 20 107 39 142 43 60 7 135 41 163 74 7 9 18 16 24 16 19 0 71 60
102 118 15 30 42 65 59 79 29 25 30 29 29 102 -1 135 -54 268 -145 366 -125
133 -365 196 -576 150z m-67 -354 c-13 -97 23 -171 89 -185 58 -13 60 -12 57
13 -2 24 -2 24 18 6 17 -15 25 -17 38 -8 9 6 16 17 14 24 -2 7 -6 27 -9 43
l-6 31 25 -30 26 -30 -24 -28 c-13 -16 -24 -34 -24 -41 0 -26 14 -25 31 4 33
54 109 48 146 -10 15 -24 20 -26 31 -14 10 10 10 14 1 14 -7 0 -9 3 -6 6 13
13 -65 64 -98 64 -27 0 -34 4 -37 25 -6 31 8 32 40 3 18 -16 26 -19 29 -10 3
8 16 3 39 -18 19 -16 41 -30 49 -30 8 0 28 -8 44 -18 24 -15 27 -21 19 -36
-19 -35 -38 -121 -38 -178 0 -55 -1 -58 -47 -99 -51 -44 -150 -95 -246 -125
l-57 -18 -62 30 c-82 39 -125 80 -132 127 -3 20 -8 53 -11 72 -3 19 -21 57
-39 84 -33 48 -33 50 -12 53 13 2 20 10 20 21 -1 9 2 17 7 17 5 0 9 -6 9 -12
1 -7 7 2 15 20 9 20 21 32 33 32 27 0 33 -10 17 -27 -35 -35 -2 -146 38 -130
13 5 17 19 17 52 0 110 -77 178 -118 105 -20 -35 -28 -37 -35 -10 -4 15 0 20
15 20 14 0 18 5 14 15 -4 10 1 15 15 15 16 0 18 5 13 25 -8 33 5 32 32 -2 30
-38 39 -24 20 31 -23 67 -20 95 12 127 15 16 29 29 31 29 2 0 1 -22 -3 -49z
m279 -50 c5 -26 4 -32 -6 -29 -9 3 -15 22 -17 49 -2 49 11 38 23 -20z m-368
-43 c-3 -8 -6 -5 -6 6 -1 11 2 17 5 13 3 -3 4 -12 1 -19z m663 -159 c16 -28
12 -77 -10 -119 -18 -36 -54 -70 -72 -70 -19 0 -6 40 22 70 39 42 48 75 25
100 -20 22 -13 53 10 44 9 -4 20 -15 25 -25z m-600 13 c0 -5 -7 -17 -15 -28
-14 -19 -14 -19 -15 2 0 11 3 24 7 27 9 10 23 9 23 -1z m558 -72 c3 -21 2 -22
-12 -11 -19 16 -21 44 -3 39 6 -3 14 -15 15 -28z m-538 -32 c0 -4 -6 -8 -14
-8 -8 0 -17 4 -20 8 -2 4 4 8 15 8 10 0 19 -4 19 -8z m524 3 c3 -4 -1 -17 -9
-27 -14 -18 -14 -18 -15 9 0 26 13 36 24 18z"/>
<path d="M706 448 c-35 -49 -9 -138 39 -138 30 0 45 26 45 77 0 45 -23 83 -50
83 -10 0 -26 -10 -34 -22z m34 -4 c0 -21 -18 -54 -30 -54 -13 0 -13 26 0 51
13 23 30 25 30 3z m34 -108 c-8 -20 -55 -18 -62 2 -3 11 0 11 18 0 19 -11 24
-11 33 4 14 21 20 17 11 -6z"/>
<path d="M740 300 l-55 -7 50 -1 c28 -1 57 3 65 8 8 5 11 9 5 8 -5 -1 -35 -4
-65 -8z"/>
<path d="M369 277 c5 -5 21 -7 37 -5 27 3 26 4 -8 9 -22 3 -34 1 -29 -4z"/>
<path d="M460 248 c0 -7 4 -19 9 -27 7 -10 9 -7 8 12 -2 26 -17 39 -17 15z"/>
<path d="M497 148 c6 -10 35 -10 51 0 8 5 -1 8 -22 8 -19 -1 -32 -4 -29 -8z"/>
</g>
</svg>
