<?xml version="1.0" standalone="no"?>
<!DOCTYPE svg PUBLIC "-//W3C//DTD SVG 20010904//EN"
 "http://www.w3.org/TR/2001/REC-SVG-20010904/DTD/svg10.dtd">
<svg version="1.0" xmlns="http://www.w3.org/2000/svg"
 width="123.000000pt" height="102.000000pt" viewBox="0 0 123.000000 102.000000"
 preserveAspectRatio="xMidYMid meet">

<g transform="translate(0.000000,102.000000) scale(0.100000,-0.100000)"
fill="#000000" stroke="none">
<path d="M503 1005 c-34 -7 -71 -19 -83 -25 -12 -6 -38 -9 -63 -5 -34 5 -58 0
-122 -25 -93 -38 -111 -51 -136 -105 -11 -22 -36 -66 -55 -98 -29 -45 -37 -70
-41 -121 -7 -78 2 -120 22 -112 11 4 15 -3 15 -30 0 -38 24 -104 38 -104 4 0
16 -16 25 -35 9 -19 23 -35 32 -35 8 0 21 -13 29 -28 12 -24 24 -30 76 -40 76
-14 86 -22 94 -72 8 -51 44 -90 126 -136 48 -26 73 -34 95 -31 40 7 186 63
211 82 10 8 -17 -1 -61 -20 -44 -19 -101 -39 -126 -46 -44 -12 -48 -11 -117
26 -81 42 -109 71 -117 121 -3 19 -7 50 -10 69 -3 19 -21 57 -40 85 -29 43
-31 50 -15 50 28 0 32 14 15 54 -15 35 -15 36 6 36 15 0 19 5 15 15 -4 10 1
15 15 15 16 0 18 5 13 25 -8 33 5 32 32 -2 30 -38 39 -24 20 31 -24 70 -21 97
16 131 l31 30 -7 -52 c-13 -99 22 -172 89 -187 58 -13 60 -12 57 13 -2 24 -2
24 18 6 17 -15 25 -17 38 -8 9 6 16 17 14 24 -2 7 -6 27 -9 43 l-6 31 22 -27
c27 -33 56 -38 48 -8 -7 26 11 25 41 -2 18 -16 26 -19 29 -10 3 8 16 3 39 -18
19 -16 41 -30 49 -30 8 0 28 -8 44 -18 24 -15 27 -21 19 -36 -19 -35 -38 -121
-38 -178 0 -56 -1 -57 -52 -102 l-53 -46 50 0 c56 0 114 23 161 63 18 15 36
27 41 27 16 0 70 64 99 118 15 30 42 65 59 79 29 25 30 29 29 102 -1 135 -54
268 -145 366 -125 133 -365 196 -576 150z m212 -404 c5 -26 4 -32 -6 -29 -9 3
-15 22 -17 49 -2 49 11 38 23 -20z m-368 -43 c-3 -8 -6 -5 -6 6 -1 11 2 17 5
13 3 -3 4 -12 1 -19z m663 -159 c16 -28 12 -77 -10 -119 -18 -36 -54 -70 -72
-70 -19 0 -6 40 22 70 39 42 48 75 25 100 -20 22 -13 53 10 44 9 -4 20 -15 25
-25z m-42 -59 c3 -21 2 -22 -12 -11 -19 16 -21 44 -3 39 6 -3 14 -15 15 -28z
m-14 -29 c3 -4 -1 -17 -9 -27 -14 -18 -14 -18 -15 9 0 26 13 36 24 18z"/>
<path d="M660 348 c0 -10 9 -22 20 -28 22 -12 141 -10 133 3 -2 4 6 7 19 7 17
0 19 3 9 9 -11 7 -10 10 4 18 11 7 -15 10 -84 9 -88 -1 -101 -3 -101 -18z"/>
<path d="M333 333 c0 -7 4 -13 9 -13 5 0 6 -5 3 -10 -4 -6 -3 -10 2 -9 4 1 20
-1 35 -5 32 -9 68 8 68 32 0 14 -10 17 -58 18 -43 1 -59 -3 -59 -13z"/>
<path d="M460 248 c0 -7 4 -19 9 -27 7 -10 9 -7 8 12 -2 26 -17 39 -17 15z"/>
</g>
</svg>
