<?xml version="1.0" standalone="no"?>
<!DOCTYPE svg PUBLIC "-//W3C//DTD SVG 20010904//EN"
 "http://www.w3.org/TR/2001/REC-SVG-20010904/DTD/svg10.dtd">
<svg version="1.0" xmlns="http://www.w3.org/2000/svg"
 width="117.000000pt" height="110.000000pt" viewBox="0 0 117.000000 110.000000"
 preserveAspectRatio="xMidYMid meet">

<g transform="translate(0.000000,110.000000) scale(0.100000,-0.100000)"
fill="#000000" stroke="none">
<path d="M446 1093 c-3 -4 6 -12 21 -19 26 -11 22 -12 -41 -13 -106 -1 -193
-20 -224 -47 l-27 -24 50 6 50 5 -56 -24 c-78 -33 -122 -62 -158 -103 -38 -42
-44 -80 -8 -47 12 11 33 26 47 33 21 11 19 7 -12 -28 -69 -77 -103 -182 -83
-259 l7 -28 13 30 13 30 1 -45 c2 -96 32 -144 114 -186 28 -15 29 -15 23 1 -5
14 -1 14 28 -4 18 -12 40 -21 49 -21 21 0 27 -22 27 -103 l0 -72 73 -67 c49
-47 80 -68 97 -68 34 0 203 46 243 66 17 9 47 27 65 41 25 19 32 21 32 8 0
-19 39 -35 85 -35 29 0 33 -3 39 -34 7 -39 20 -51 59 -61 15 -4 27 -11 27 -16
0 -5 38 -9 84 -9 81 0 84 1 79 21 -3 12 -21 30 -39 41 -23 14 -34 27 -34 44 0
13 -13 38 -29 56 -29 33 -29 33 -10 57 10 13 19 33 20 45 0 20 1 20 8 1 8 -19
8 -19 19 2 15 27 15 93 2 128 -9 23 -6 32 14 56 31 37 40 81 34 169 -16 218
-248 427 -465 418 -45 -2 -66 1 -80 13 -45 40 -135 64 -157 42z m122 -508 c-3
-3 -9 2 -12 12 -6 14 -5 15 5 6 7 -7 10 -15 7 -18z m31 -85 c42 0 44 11 9 41
-41 35 -17 40 36 8 23 -14 45 -19 63 -15 38 7 105 -30 135 -74 23 -34 23 -34
5 -72 -10 -21 -21 -65 -24 -98 -7 -71 -43 -120 -119 -162 -49 -26 -212 -78
-246 -78 -21 0 -144 93 -158 120 -6 10 -10 48 -10 85 0 36 -7 81 -14 100 -14
33 -14 35 5 35 20 0 20 0 0 29 -25 34 -26 57 -6 77 8 8 12 21 9 28 -11 28 16
26 37 -3 22 -30 69 -49 89 -36 8 5 5 14 -7 28 -10 12 1 5 24 -15 41 -36 101
-57 123 -43 7 4 -6 25 -34 55 -61 65 -58 80 5 30 31 -25 61 -40 78 -40z m377
-95 c25 -39 11 -91 -41 -142 -42 -43 -75 -55 -75 -29 0 7 11 21 25 30 13 9 32
30 41 47 18 36 11 84 -11 75 -20 -7 -19 3 2 26 22 25 39 23 59 -7z m-46 -61
c0 -13 -40 -36 -49 -28 -2 2 4 15 13 29 17 26 36 26 36 -1z m-40 -59 c-7 -9
-15 -13 -17 -11 -7 7 7 26 19 26 6 0 6 -6 -2 -15z"/>
<path d="M700 388 c-19 -5 -54 -8 -77 -5 -29 3 -43 1 -43 -7 0 -52 124 -46
169 8 16 19 6 20 -49 4z"/>
<path d="M312 370 c4 -32 37 -37 69 -11 30 24 21 36 -14 20 -21 -10 -30 -9
-43 2 -14 11 -16 10 -12 -11z"/>
<path d="M385 316 c-16 -12 -17 -17 -7 -37 7 -13 10 -16 8 -7 -3 9 0 19 7 22
8 3 7 5 -2 5 -11 1 -10 5 5 16 10 8 16 15 13 15 -3 0 -14 -6 -24 -14z"/>
<path d="M418 193 c6 -2 18 -2 25 0 6 3 1 5 -13 5 -14 0 -19 -2 -12 -5z"/>
</g>
</svg>
