<?xml version="1.0" standalone="no"?>
<!DOCTYPE svg PUBLIC "-//W3C//DTD SVG 20010904//EN"
 "http://www.w3.org/TR/2001/REC-SVG-20010904/DTD/svg10.dtd">
<svg version="1.0" xmlns="http://www.w3.org/2000/svg"
 width="145.000000pt" height="100.000000pt" viewBox="0 0 145.000000 100.000000"
 preserveAspectRatio="xMidYMid meet">

<g transform="translate(0.000000,100.000000) scale(0.100000,-0.100000)"
fill="#000000" stroke="none">
<path d="M505 988 c-22 -5 -81 -9 -132 -8 -108 1 -146 -12 -188 -64 -17 -21
-56 -62 -87 -93 -32 -30 -66 -74 -78 -97 -21 -45 -28 -122 -9 -111 7 5 8 -11
4 -52 -9 -72 6 -131 40 -163 l25 -23 0 34 0 34 19 -40 c10 -22 37 -58 60 -80
22 -21 41 -47 41 -57 0 -10 -11 -61 -25 -114 -14 -53 -25 -109 -25 -125 l0
-29 183 0 c170 0 189 2 258 25 41 14 95 39 122 55 l47 29 0 -25 c0 -14 -7 -38
-15 -54 l-16 -30 361 0 360 0 -17 28 c-28 43 -94 134 -143 198 -47 60 -109
160 -126 203 -8 18 -6 36 3 64 8 22 13 48 11 59 -3 17 -5 17 -32 3 -25 -14
-27 -14 -16 0 7 8 18 15 25 15 21 0 45 65 45 122 0 160 -95 272 -242 285 -41
4 -71 1 -103 -12 -37 -13 -52 -15 -73 -6 -41 17 -163 41 -202 40 -19 -1 -53
-6 -75 -11z m-170 -170 c31 14 34 -4 7 -38 -17 -22 -21 -22 -50 -9 -34 15 -39
28 -20 47 8 8 15 9 25 0 10 -8 20 -8 38 0z m161 -9 c20 9 34 9 59 -1 27 -9 43
-9 75 1 54 16 62 8 19 -18 -44 -27 -95 -36 -124 -23 -15 7 -26 8 -30 2 -10
-16 -55 -12 -61 5 -4 8 -3 22 0 31 5 13 9 14 21 4 12 -10 21 -10 41 -1z m-116
-344 c29 -31 44 -32 36 -2 -3 12 -9 33 -12 47 -5 23 -5 23 14 -5 30 -47 57
-66 101 -72 36 -5 41 -3 41 14 0 10 -6 25 -12 32 -11 10 -10 11 5 6 12 -5 17
-2 17 9 0 14 4 13 29 -5 16 -12 36 -19 44 -16 8 3 25 -5 37 -18 12 -13 48 -35
81 -50 l60 -27 -7 -96 c-6 -94 -7 -98 -43 -135 -20 -21 -54 -50 -77 -63 -51
-30 -178 -74 -213 -74 -36 1 -148 74 -171 113 -13 21 -20 50 -20 83 0 36 -9
68 -29 110 -32 65 -51 119 -51 142 0 12 5 11 23 -6 30 -29 40 -28 35 3 -7 35
5 39 32 10 26 -27 50 -33 50 -11 0 7 -7 33 -15 56 -8 23 -15 52 -15 64 1 11 9
-3 19 -32 10 -29 29 -64 41 -77z m671 94 l24 -20 -28 17 c-24 15 -30 15 -38 3
-7 -11 -9 -11 -9 4 0 23 23 22 51 -4z m-782 -49 c1 -13 0 -13 -9 0 -5 8 -9 24
-9 35 l0 20 9 -20 c5 -11 9 -27 9 -35z m295 24 c3 -8 2 -12 -4 -9 -6 3 -10 10
-10 16 0 14 7 11 14 -7z m420 -130 c13 -34 5 -92 -16 -124 -28 -41 -48 -49
-48 -21 0 12 4 21 9 21 5 0 14 14 21 30 10 24 10 37 1 57 -9 19 -9 29 0 39 15
18 25 18 33 -2z m-34 -58 c0 -7 -9 -16 -20 -19 -23 -6 -26 3 -8 21 16 16 28
15 28 -2z m-10 -35 c0 -12 -20 -25 -27 -18 -7 7 6 27 18 27 5 0 9 -4 9 -9z"/>
<path d="M695 334 c-39 -15 -93 -15 -127 0 -27 12 -23 -29 4 -48 33 -23 96
-19 153 9 28 13 44 25 38 25 -7 0 -13 7 -13 15 0 18 -4 18 -55 -1z"/>
<path d="M286 314 c-6 -15 54 -47 79 -43 13 3 21 14 23 29 3 24 0 25 -47 25
-29 0 -53 -5 -55 -11z"/>
<path d="M380 235 c0 -5 5 -17 10 -25 5 -8 10 -10 10 -5 0 6 -5 17 -10 25 -5
8 -10 11 -10 5z"/>
<path d="M418 138 c5 -5 16 -8 23 -6 8 3 3 7 -10 11 -17 4 -21 3 -13 -5z"/>
</g>
</svg>
